<svg id="Open_Nav" xmlns="http://www.w3.org/2000/svg" viewBox="0 0 12 12"><pattern x="-1308" y="-60" width="12" height="12" patternUnits="userSpaceOnUse" id="White_Dots" viewBox="0 -12 12 12" overflow="visible"><path fill="none" d="M0-12h12V0H0z"/><g fill="#FFF"><path d="M6-11.5c.3 0 .5-.2.5-.5h-1c0 .3.2.5.5.5z"/><path d="M6-.5c-.3 0-.5.2-.5.5h1c0-.3-.2-.5-.5-.5z"/><path d="M11.5-6c0 .3.2.5.5.5v-1c-.3 0-.5.2-.5.5z"/><path d="M.5-6c0-.3-.2-.5-.5-.5v1c.3 0 .5-.2.5-.5z"/></g></pattern><path fill="url(#White_Dots)" d="M0 0h12v12H0z"/></svg>