<svg id="Open_Nav" xmlns="http://www.w3.org/2000/svg" viewBox="0 0 12 12"><pattern x="-1308" y="-60" width="12" height="12" patternUnits="userSpaceOnUse" id="Black_Dots_1.5px" viewBox="0 -12 12 12" overflow="visible"><path fill="none" d="M0-12h12V0H0z"/><path d="M6-11.2c.4 0 .8-.3.8-.8H5.3c0 .4.3.8.7.8z" fill="#302e28"/><path d="M6-.8c-.4 0-.7.4-.7.8h1.5c0-.4-.4-.8-.8-.8z" fill="#302e28"/><path d="M11.2-6c0 .4.3.8.8.8v-1.5c-.4 0-.8.3-.8.7z" fill="#302e28"/><path d="M.8-6c0-.4-.3-.8-.8-.8v1.5c.4.1.8-.3.8-.7z" fill="#302e28"/></pattern><path fill="url(#Black_Dots_1.5px)" d="M0 0h12v12H0z"/></svg>