<svg id="About" xmlns="http://www.w3.org/2000/svg" viewBox="0 0 48 48"><g fill="#10069f"><path d="M24 0C10.7 0 0 10.7 0 24s10.7 24 24 24 24-10.7 24-24S37.3 0 24 0zm8.3 14.6c1.5 0 2.7 1.2 2.7 2.7 0 1.5-1.2 2.7-2.7 2.7-1.5 0-2.7-1.2-2.7-2.7 0-1.5 1.2-2.7 2.7-2.7zm-8.1-5.8c1.9 0 3.4 1.5 3.4 3.4s-1.5 3.4-3.4 3.4-3.4-1.5-3.4-3.4c-.1-1.8 1.5-3.4 3.4-3.4zm-9 30.1H14V26.7h1.2v12.2zm-3.9-12.7c-.1.1-.2.1-.2.2l.3-.9c.4-1 .9-1.7 1.4-2.2.5-.4 1.1-.7 1.7-.7.8 0 1.5.3 2.1 1-2 .7-3.8 1.5-5.3 2.6zm3.2-4.3c-1.5 0-2.7-1.2-2.7-2.7 0-1.5 1.2-2.7 2.7-2.7 1.5 0 2.7 1.2 2.7 2.7 0 1.5-1.2 2.7-2.7 2.7zM24 35.5c0 1.2-.3 2.1-.8 2.7-.6.6-1.4.9-2.6.9-.7 0-1.2-.1-1.7-.3-.4-.2-.7-.5-1-.9-.2-.4-.4-.8-.5-1.3-.1-.5-.1-1-.1-1.6h1.2v1.1c0 .4.1.7.3 1 .1.3.4.5.7.7.3.2.7.3 1.2.3.8 0 1.3-.2 1.7-.7.3-.5.5-1.1.5-2v-8.8H24v8.9zm-6.7-12c.1-.4.3-.8.4-1.2.8-2 1.8-3.5 2.9-4.4 1.1-.9 2.3-1.4 3.5-1.4 1.6 0 3.1.7 4.2 2.1.5.6 1 1.4 1.5 2.3l-.1.1c-.6.5-1.1 1.2-1.6 2.1-1.3-.2-2.7-.3-4.2-.3-2.2 0-4.5.2-6.6.7zm18.5 15.4h-1.3c-.1-.2-.2-.5-.3-.8-.1-.4-.1-.7-.1-1.1 0-.4-.1-.8-.1-1.1 0-.4 0-.7-.1-.9-.1-.3-.2-.6-.3-.8-.2-.2-.3-.3-.5-.4-.2-.1-.5-.2-.7-.2H28v5.5h-1.2V26.7h4.8c1.3 0 2.4.3 3.1.8.7.5 1.1 1.3 1.1 2.4 0 .8-.2 1.4-.5 1.8-.3.5-.8.8-1.5 1.2.4.1.6.3.8.5.2.2.4.5.5.8.1.3.2.6.2 1 0 .3 0 .7.1 1 0 .5 0 .8.1 1.2 0 .3.1.6.1.7 0 .2.1.3.1.4.1.1.1.2.2.2v.2zM32.4 24c-1-.4-2.2-.6-3.4-.8.3-.5.7-1 1.1-1.3.7-.6 1.4-.9 2.2-.9 1 0 1.9.4 2.7 1.3.7.9 1.4 2.1 1.8 3.6 0 .2.1.3.1.5-1.2-1-2.7-1.8-4.5-2.4z"/><path d="M34.3 31c.2-.3.2-.7.2-1.1 0-.4-.1-.8-.2-1.1-.2-.3-.4-.5-.7-.7-.3-.2-.6-.3-.9-.4-.4-.1-.7-.1-1.1-.1h-3.7v4.7h3.6c.4 0 .8 0 1.2-.1.4-.1.7-.2 1-.4.2-.2.5-.5.6-.8z"/></g></svg>