<svg xmlns="http://www.w3.org/2000/svg"><symbol id="bg-dots-black" viewBox="0 0 12 12"><pattern x="-1308" y="-60" width="12" height="12" patternUnits="userSpaceOnUse" id="Black_Dots_1.5px" viewBox="0 -12 12 12" overflow="visible"><path fill="none" d="M0-12h12V0H0z"/><path d="M6-11.2c.4 0 .8-.3.8-.8H5.3c0 .4.3.8.7.8z" fill="#302e28"/><path d="M6-.8c-.4 0-.7.4-.7.8h1.5c0-.4-.4-.8-.8-.8z" fill="#302e28"/><path d="M11.2-6c0 .4.3.8.8.8v-1.5c-.4 0-.8.3-.8.7z" fill="#302e28"/><path d="M.8-6c0-.4-.3-.8-.8-.8v1.5c.4.1.8-.3.8-.7z" fill="#302e28"/></pattern><path fill="url(#Black_Dots_1.5px)" d="M0 0h12v12H0z"/></symbol><symbol id="bg-dots-white" viewBox="0 0 12 12"><pattern x="-1308" y="-60" width="12" height="12" patternUnits="userSpaceOnUse" id="White_Dots" viewBox="0 -12 12 12" overflow="visible"><path fill="none" d="M0-12h12V0H0z"/><g fill="#FFF"><path d="M6-11.5c.3 0 .5-.2.5-.5h-1c0 .3.2.5.5.5z"/><path d="M6-.5c-.3 0-.5.2-.5.5h1c0-.3-.2-.5-.5-.5z"/><path d="M11.5-6c0 .3.2.5.5.5v-1c-.3 0-.5.2-.5.5z"/><path d="M.5-6c0-.3-.2-.5-.5-.5v1c.3 0 .5-.2.5-.5z"/></g></pattern><path fill="url(#White_Dots)" d="M0 0h12v12H0z"/></symbol><symbol id="icon-arrow-left" viewBox="0 0 72 20.1"><path d="M3 9.1h72v2H3z"/><path d="M16.1.5c.3.5.2 1.1-.3 1.4L2.9 10.1l12.9 8.2c.5.3.6.9.3 1.4-.3.5-.9.6-1.4.3L.5 10.9c-.3-.2-.5-.5-.5-.8s.2-.7.5-.8L14.7.2c.2-.1.3-.2.5-.2.4 0 .7.2.9.5z"/></symbol><symbol id="icon-arrow-right" viewBox="0 0 72 20.1"><path d="M0 9.1h69v2H0z"/><path d="M55.9 19.7c-.3-.5-.2-1.1.3-1.4l12.9-8.2-12.9-8.3c-.5-.3-.6-.9-.3-1.4s.9-.6 1.4-.3l14.2 9.1c.3.2.5.5.5.8s-.2.7-.5.8L57.3 20c-.2.1-.4.2-.5.2-.4-.1-.7-.2-.9-.5z" stroke-width="0"/></symbol><symbol id="icon-burger" viewBox="0 0 36 26"><path fill="none" stroke-width="2" stroke-miterlimit="10" d="M0 1h36"/><path fill="none" stroke-width="2" stroke-miterlimit="10" d="M0 13h36"/><path fill="none" stroke-width="2" stroke-miterlimit="10" d="M0 25h36"/></symbol><symbol id="icon-ijr" viewBox="0 0 48 48"><path d="M24 0C10.7 0 0 10.7 0 24s10.7 24 24 24 24-10.7 24-24S37.3 0 24 0zm8.3 14.6c1.5 0 2.7 1.2 2.7 2.7 0 1.5-1.2 2.7-2.7 2.7-1.5 0-2.7-1.2-2.7-2.7 0-1.5 1.2-2.7 2.7-2.7zm-8.1-5.8c1.9 0 3.4 1.5 3.4 3.4s-1.5 3.4-3.4 3.4-3.4-1.5-3.4-3.4c-.1-1.8 1.5-3.4 3.4-3.4zm-9 30.1H14V26.7h1.2v12.2zm-3.9-12.7c-.1.1-.2.1-.2.2l.3-.9c.4-1 .9-1.7 1.4-2.2.5-.4 1.1-.7 1.7-.7.8 0 1.5.3 2.1 1-2 .7-3.8 1.5-5.3 2.6zm3.2-4.3c-1.5 0-2.7-1.2-2.7-2.7 0-1.5 1.2-2.7 2.7-2.7 1.5 0 2.7 1.2 2.7 2.7 0 1.5-1.2 2.7-2.7 2.7zM24 35.5c0 1.2-.3 2.1-.8 2.7-.6.6-1.4.9-2.6.9-.7 0-1.2-.1-1.7-.3-.4-.2-.7-.5-1-.9-.2-.4-.4-.8-.5-1.3-.1-.5-.1-1-.1-1.6h1.2v1.1c0 .4.1.7.3 1 .1.3.4.5.7.7.3.2.7.3 1.2.3.8 0 1.3-.2 1.7-.7.3-.5.5-1.1.5-2v-8.8H24v8.9zm-6.7-12c.1-.4.3-.8.4-1.2.8-2 1.8-3.5 2.9-4.4 1.1-.9 2.3-1.4 3.5-1.4 1.6 0 3.1.7 4.2 2.1.5.6 1 1.4 1.5 2.3l-.1.1c-.6.5-1.1 1.2-1.6 2.1-1.3-.2-2.7-.3-4.2-.3-2.2 0-4.5.2-6.6.7zm18.5 15.4h-1.3c-.1-.2-.2-.5-.3-.8-.1-.4-.1-.7-.1-1.1 0-.4-.1-.8-.1-1.1 0-.4 0-.7-.1-.9-.1-.3-.2-.6-.3-.8-.2-.2-.3-.3-.5-.4-.2-.1-.5-.2-.7-.2H28v5.5h-1.2V26.7h4.8c1.3 0 2.4.3 3.1.8.7.5 1.1 1.3 1.1 2.4 0 .8-.2 1.4-.5 1.8-.3.5-.8.8-1.5 1.2.4.1.6.3.8.5.2.2.4.5.5.8.1.3.2.6.2 1 0 .3 0 .7.1 1 0 .5 0 .8.1 1.2 0 .3.1.6.1.7 0 .2.1.3.1.4.1.1.1.2.2.2v.2zM32.4 24c-1-.4-2.2-.6-3.4-.8.3-.5.7-1 1.1-1.3.7-.6 1.4-.9 2.2-.9 1 0 1.9.4 2.7 1.3.7.9 1.4 2.1 1.8 3.6 0 .2.1.3.1.5-1.2-1-2.7-1.8-4.5-2.4z" stroke-width="0"/><path d="M34.3 31c.2-.3.2-.7.2-1.1 0-.4-.1-.8-.2-1.1-.2-.3-.4-.5-.7-.7-.3-.2-.6-.3-.9-.4-.4-.1-.7-.1-1.1-.1h-3.7v4.7h3.6c.4 0 .8 0 1.2-.1.4-.1.7-.2 1-.4.2-.2.5-.5.6-.8z" stroke-width="0"/></symbol><symbol id="icon-number-0" viewBox="0 0 80.3 154.4"><path d="M41.1 116C15 116 5.7 94.8 5.7 68.9 5.7 46.8 14.4 21 41.1 21c25.5 0 34.8 23.5 34.8 47.9 0 23.4-7.5 47.1-34.8 47.1zm0-80.4c-14.4 0-18.4 17.8-18.4 33.6 0 15.5 3.9 32.3 18.4 32.3s18-16.7 18-32.3c-.1-15.8-3.7-33.6-18-33.6z"/></symbol><symbol id="icon-number-1" viewBox="0 0 80.3 154.4"><path d="M57.3 114.4H41.8V54.5H16.5V42.2h4.9c7.3 0 12.1-1.3 15.7-3.9 4.6-3.4 6.8-8.6 7-15.7h13.2v91.8z"/></symbol><symbol id="icon-number-2" viewBox="0 0 80.3 154.4"><path d="M10.3 58.5c-.8-2.4-1.6-5.4-1.6-9.7 0-16.1 13-27.8 32.4-27.8 18.6 0 30.8 11.3 30.8 28.5 0 20.8-19.2 35.6-35.2 47.7l-4.2 3.2v.1s5-.1 14.3-.1H74v14H7.5v-12.6c7.6-5 14.7-10.3 28.1-22.3C47 69.3 54.9 62.4 54.9 50.4c0-9.3-5.8-15.4-15.1-15.4-10.3 0-15.1 8-15.1 16.7 0 3 .5 6.1 1.5 8.9l-15.9-2.1z"/></symbol><symbol id="icon-number-3" viewBox="0 0 80.3 154.4"><path d="M23 85.1c1.2 10.9 6.5 17.5 17 17.5 11.7 0 16.5-8 16.5-15.5 0-6.8-3.5-11.3-10.3-13.4-3.2-.9-7.2-.9-11.5-.9h-6.1V59.7H36c3.6 0 6.6-.1 9-.8 6.2-1.6 9.5-6.3 9.5-12.1C54.5 40.2 50 34 39.8 34c-12 0-15.5 9.2-15.9 15.7L9.2 47.2C9.5 33 20.3 21 40.7 21c19.3 0 30 9.9 30 23.4 0 11.1-7.3 17.7-14.2 20.9C64.2 68 73.4 74 73.4 88.2c0 15.8-12 27.8-33.2 27.8-22 0-31.7-11.5-33.3-28.6L23 85.1z"/></symbol><symbol id="icon-number-4" viewBox="0 0 80.3 154.4"><path d="M76.3 80.9v13.4H61.9v20.1H46.6V94.3H4.5v-12l41.8-59.7h15.5v58.3h14.5zm-29.7 0V67c0-7.7.4-20.4.8-25.4h-.1c-2 4.2-6.5 11.7-12.3 20.1L21.5 80.9h25.1z"/></symbol><symbol id="icon-number-5" viewBox="0 0 80.3 154.4"><path d="M9.4 73.9l7-51.3h53.1l-1.4 14.3H28.8l-3.2 20.7c1.9-2 8.2-6.2 18.4-6.2 18 0 30 11.7 30 31 0 18.5-10.9 33.6-33.7 33.6-17.3 0-29.8-8.6-32.9-23.8L23.3 88c1.6 8.1 7.4 14.2 16.9 14.2 11.6 0 16.9-8 16.9-19 0-10.8-5.4-18.8-17-18.8-8.8 0-14.3 5.3-16.2 12.7L9.4 73.9z"/></symbol><symbol id="icon-number-6" viewBox="0 0 80.3 154.4"><path d="M58.1 49.3c-1.3-5.8-5.5-14.7-16.1-14.7-12 0-17.7 12.8-18.1 26.5 3.2-3.2 10.1-8 20.8-8 16.1 0 30.1 9.7 30.1 29.6 0 20.1-12.7 33.3-33.3 33.3C20 116 6.8 101.4 6.8 69.6 6.8 38.9 19.4 21 42.7 21c19.6 0 28.2 11.6 30.9 25.1l-15.5 3.2zm-16.6 18c-9 0-15.4 5.7-17.3 8.9-.1 10.8 4 25.9 17.3 25.9 9.7 0 16.2-7.3 16.2-18.5 0-10-5.9-16.3-16.2-16.3z"/></symbol><symbol id="icon-number-7" viewBox="0 0 80.3 154.4"><path d="M25.6 114.4c1.4-8.5 3.8-17.4 6.9-26.3C38.8 69.7 48 52.7 58.6 36.9H22.3v17.3H7.1V22.6h70.1v13.2c-18.4 22.7-29.8 49.7-33.6 78.6h-18z"/></symbol><symbol id="icon-number-8" viewBox="0 0 80.3 154.4"><path d="M6.5 88.9c0-10.7 5.7-17.8 15.7-21.6-6.8-3.1-13.1-9-13.1-20.9 0-14.6 12-25.4 31.7-25.4s31.7 10.8 31.7 25.4c0 11.9-6.3 17.8-13.1 20.9 10 3.8 15.7 10.9 15.7 21.6 0 16.9-13 27.1-34.3 27.1S6.5 105.8 6.5 88.9zm16.4-1.4c0 8.6 7 14.3 18 14.3 10.7 0 18-4.9 18-14.4 0-8.2-6.6-13.8-18-13.8-11.6 0-18 5.7-18 13.9zm1.9-39.9c0 6.5 5.1 13.4 16.1 13.4S57 54.1 57 47.6c0-6.7-4.7-13-16.1-13s-16.1 6.2-16.1 13z"/></symbol><symbol id="icon-number-9" viewBox="0 0 80.3 154.4"><path d="M23.5 87.7c1.3 5.8 5.5 14.6 16.1 14.6 12 0 17.7-12.7 18.1-26.3-3.2 3.2-10.1 8-20.8 8-16.1 0-30.1-9.7-30.1-29.6C6.8 34.2 19.5 21 40.1 21c21.5 0 34.7 14.6 34.7 46.4C74.8 98 62.2 116 38.9 116 19.4 116 10.7 104.4 8 90.9l15.5-3.2zm16.6-18.1c9 0 15.4-5.7 17.3-8.9.1-10.8-4-25.9-17.3-25.9-9.7 0-16.2 7.3-16.2 18.5 0 9.9 6 16.3 16.2 16.3z"/></symbol><symbol id="icon-uic" viewBox="0 0 172.6 47.8"><path d="M-424-80.2h-1v-4.5h1v4.5z"/><path d="M-423-84.7h1l1.8 3.1v-3.1h.8v4.5h-1l-1.8-3.2v3.2h-.8v-4.5z"/><path d="M-417.8-81.6c0 .2.1.3.2.4.1.2.4.3.8.3.2 0 .4 0 .5-.1.3-.1.4-.3.4-.5 0-.1-.1-.2-.2-.3s-.3-.1-.6-.2l-.5-.1c-.4-.1-.8-.2-1-.3-.3-.2-.4-.5-.4-1 0-.4.1-.7.4-1 .2-.3.6-.5 1.2-.5s.8.1 1.3.4c.4.3.5.6.5 1.1h-.8c0-.3-.1-.4-.3-.5-.1-.1-.3-.1-.5-.1s-.4 0-.6.1c-.1.1-.2.2-.2.4s.1.3.2.3.3.1.6.2l.7.2c.3.1.6.2.7.3.3.2.4.5.4 1 0 .4-.1.7-.4 1.1-.3.3-.7.4-1.4.4s-1.1-.1-1.4-.4c-.3-.3-.5-.6-.5-1.1h.8v-.1z"/><path d="M-411.1-84.7v.7h-1.4v3.7h-1V-84h-1.4v-.7h3.8z"/><path d="M-409.6-80.2h-1v-4.5h1v4.5z"/><path d="M-405.5-84.7v.7h-1.4v3.7h-1V-84h-1.4v-.7h3.8z"/><path d="M-405-84.7h1v2.8c0 .3 0 .5.1.6.1.2.3.4.7.4.4 0 .6-.1.7-.4.1-.1.1-.3.1-.6v-2.8h1v2.8c0 .4-.1.8-.2 1.1-.3.5-.8.7-1.6.7s-1.3-.2-1.6-.7c-.1-.2-.2-.6-.2-1.1v-2.8z"/><path d="M-397.2-84.7v.7h-1.4v3.7h-.8V-84h-1.4v-.7h3.6z"/><path d="M-393.3-83.9h-2.3v1h2.2v.7h-2.2v1.2h2.4v.8h-3.4v-4.5h3.3v.8z"/><path d="M-390.7-84.7h3.2v.7h-2.2v1.1h2v.7h-2v1.9h-1v-4.4z"/><path d="M-383.4-80.7c-.3.3-.8.5-1.5.5s-1.2-.2-1.5-.5c-.4-.4-.6-1.1-.6-1.8 0-.8.2-1.5.6-1.8.3-.3.8-.5 1.5-.5s1.2.2 1.5.5c.4.4.6 1.1.6 1.8 0 .8-.2 1.4-.6 1.8zm-.6-.6c.2-.3.3-.6.3-1.2s-.1-.8-.3-1.2-.5-.4-.8-.4c-.3 0-.6.1-.8.4-.2.3-.3.6-.3 1.2s.1.8.3 1.2c.2.3.5.4.8.4.2-.1.6-.2.8-.4z"/><path d="M-379.1-84.6c.2.1.3.2.4.3.1.1.2.2.2.4s.1.3.1.4c0 .2-.1.4-.2.6s-.3.3-.5.4c.2.1.3.2.4.3.1.1.1.4.1.7v.7c0 .1.1.2.2.2v.1h-1.1c0-.1 0-.2-.1-.2v-.8c0-.3 0-.4-.1-.5-.1-.1-.3-.1-.5-.1h-1v1.8h-1v-4.6h2.1c.5.2.7.2 1 .3zm-2 .7v1.2h1c.2 0 .3 0 .4-.1.2-.1.2-.2.2-.5s-.1-.4-.2-.5c-.1 0-.2-.1-.4-.1h-1z"/><path d="M-375.2-81.9c0 .4 0 .7.1.8.1.1.2.2.4.2s.3-.1.4-.2c0-.1.1-.2.1-.4v-3.2h1v3.1c0 .4-.1.6-.2 1-.2.4-.6.5-1.2.5-.5 0-1-.1-1.2-.4-.2-.3-.3-.7-.3-1.3v-.1h.9z"/><path d="M-372.2-84.7h1v2.8c0 .3 0 .5.1.6.1.2.3.4.7.4.4 0 .6-.1.7-.4.1-.1.1-.3.1-.6v-2.8h1v2.8c0 .4-.1.8-.2 1.1-.3.5-.8.7-1.6.7s-1.3-.2-1.6-.7c-.1-.2-.2-.6-.2-1.1v-2.8z"/><path d="M-365.1-84.7h1l-1.5 4.5h-.8l-1.6-4.5h1l1 3.4.9-3.4z"/><path d="M-360.2-83.9h-2.3v1h2.2v.7h-2.2v1.2h2.4v.8h-3.4v-4.5h3.3v.8z"/><path d="M-359.4-84.7h1l1.8 3.1v-3.1h.8v4.5h-1l-1.8-3.2v3.2h-.8v-4.5z"/><path d="M-354.1-80.2h-1v-4.5h1v4.5z"/><path d="M-353.1-84.7h1v3.7h2.2v.8h-3.2v-4.5z"/><path d="M-346-83.9h-2.3v1h2.1v.7h-2.1v1.2h2.4v.8h-3.4v-4.5h3.3v.8z"/><path d="M-340.5-84.6c.2.1.3.2.4.3.1.1.2.2.2.4s.1.3.1.4c0 .2-.1.4-.2.6s-.3.3-.5.4c.2.1.3.2.4.3.1.1.1.4.1.7v.7c0 .1.1.2.2.2v.1h-1.1c0-.1 0-.2-.1-.2v-.8c0-.3 0-.4-.1-.5-.1-.1-.3-.1-.5-.1h-1v1.8h-1v-4.6h2.1c.6.2.8.2 1 .3zm-2 .7v1.2h1c.2 0 .3 0 .4-.1.2-.1.2-.2.2-.5s-.1-.4-.2-.5c-.1 0-.2-.1-.4-.1h-1z"/><path d="M-335.6-83.9h-2.3v1h2.2v.7h-2.2v1.2h2.4v.8h-3.4v-4.5h3.3v.8z"/><path d="M-334-81.6c0 .2.1.3.2.4.1.2.4.3.8.3.2 0 .4 0 .5-.1.3-.1.4-.3.4-.5 0-.1-.1-.2-.2-.3-.1-.1-.3-.1-.6-.2l-.5-.1c-.4-.1-.8-.2-1-.3-.3-.2-.4-.5-.4-1 0-.4.1-.7.4-1 .3-.2.7-.4 1.3-.4s.8.1 1.3.4c.3.2.5.6.5 1.1h-.8c0-.3-.1-.4-.3-.5-.1-.1-.3-.1-.5-.1s-.4 0-.6.1c-.1.1-.2.2-.2.4s.1.3.2.3.3.1.6.2l.7.2c.3.1.6.2.7.3.3.2.4.5.4 1 0 .4-.1.7-.4 1.1-.3.3-.7.4-1.4.4s-1.1-.1-1.4-.4c-.3-.3-.5-.6-.5-1.1h.7v-.2z"/><path d="M-327.2-83.9h-2.3v1h2.1v.7h-2.1v1.2h2.4v.8h-3.4v-4.5h3.3v.8z"/><path d="M-325.1-84.7h1.1l1.6 4.5h-1.1l-.3-1h-1.7l-.3 1h-1l1.7-4.5zm0 2.8h1.2l-.5-1.8-.7 1.8z"/><path d="M-318.9-84.6c.2.1.3.2.4.3.1.1.2.2.2.4.1.1.1.3.1.4 0 .2-.1.4-.2.6s-.3.3-.5.4c.2.1.3.2.4.3.1.1.1.4.1.7v.7c0 .1.1.2.2.2v.1h-1.1c0-.1 0-.2-.1-.2v-.8c0-.3 0-.4-.1-.5-.1-.1-.3-.1-.5-.1h-1v1.8h-1v-4.6h2.1c.5.2.8.2 1 .3zm-2 .7v1.2h1c.2 0 .3 0 .4-.1.2-.1.2-.2.2-.5s-.1-.4-.2-.5c-.1 0-.2-.1-.4-.1h-1z"/><path d="M-316.9-84.3c.3-.3.8-.5 1.4-.5.7 0 1.3.2 1.6.7.2.3.3.5.3.8h-.8c-.1-.2-.1-.4-.2-.5-.2-.2-.4-.3-.7-.3-.3 0-.6.1-.7.4-.2.3-.3.6-.3 1.2s.1.8.3 1.2.4.4.7.4c.3 0 .5-.1.7-.3.1-.1.2-.3.2-.5h1c-.1.5-.3.8-.6 1.2-.3.3-.7.4-1.3.4-.6 0-1.2-.2-1.5-.6-.3-.4-.5-1-.5-1.7-.2-.8 0-1.4.4-1.9z"/><path d="M-312.8-80.2v-4.5h1v1.7h1.7v-1.7h1v4.5h-1v-2h-1.7v2h-1z"/><path d="M-424.6-76.5h2.2c.7 0 1.4.3 1.8.8.3.5.5 1.2.5 1.9 0 .6-.1 1.2-.3 1.6-.4.8-1.1 1.3-2 1.3h-2.2v-5.6zm2 5c.2 0 .4 0 .6-.1.3-.1.5-.3.7-.5.1-.2.2-.5.3-.8 0-.2.1-.4.1-.6 0-.7-.1-1.3-.4-1.6-.3-.4-.7-.5-1.3-.5h-1.4v4.2h1.4z"/><path d="M-419-76.5h4v.6h-3.3v1.8h3.1v.6h-3.1v1.9h3.4v.6h-4.1v-5.5z"/><path d="M-413.8-76.5h2.5c.5 0 .8.1 1.2.4.3.3.4.6.4 1.2 0 .4-.1.8-.4 1.2s-.6.5-1.3.5h-1.7v2.3h-.7v-5.6zm2.9.7c-.2-.1-.4-.1-.6-.1h-1.5v1.9h1.5c.3 0 .6-.1.8-.2.2-.1.3-.4.3-.7 0-.4-.2-.7-.5-.9z"/><path d="M-407.6-76.5h.8l2 5.6h-.8l-.5-1.7h-2.2l-.6 1.7h-.7l2-5.6zm1.3 3.3l-.8-2.4-.8 2.4h1.6z"/><path d="M-404-76.5h2.5c.4 0 .7.1 1.1.2.5.2.7.6.7 1.3 0 .3-.1.6-.2.8-.1.2-.3.4-.5.5.2.1.4.2.5.3.1.1.2.4.2.7v1.1c0 .2.1.3.2.3v.2h-1s0-.1-.1-.2v-1.4c0-.3-.1-.6-.4-.7-.1-.1-.3-.1-.6-.1h-1.7v2.4h-.7v-5.4zm2.5 2.5c.3 0 .6-.1.8-.2.2-.1.3-.4.3-.7 0-.4-.1-.6-.4-.8-.1-.1-.3-.1-.6-.1h-1.8v1.9h1.7z"/><path d="M-394.5-76.5v.6h-1.9v5h-.7v-4.9h-1.9v-.6h4.6v-.1z"/><path d="M-393.8-76.5h1.1l1.6 4.7 1.6-4.7h1.1v5.6h-.7v-4.6l-1.5 4.7h-.7l-1.6-4.7v4.6h-.7v-5.6z"/><path d="M-387.2-76.5h4v.6h-3.3v1.8h3v.6h-3.1v1.9h3.4v.6h-4.1v-5.6h.1z"/><path d="M-382.1-76.5h.8l2.8 4.5v-4.5h.7v5.6h-.8l-2.8-4.6v4.6h-.7v-5.6z"/><path d="M-372.5-76.5v.6h-1.9v5h-.7v-4.9h-1.9v-.6h4.6v-.1z"/><path d="M-365.1-75.7c.3.5.5 1.2.5 1.9 0 .8-.2 1.5-.6 2.1-.5.6-1.2 1-2.1 1-.8 0-1.5-.3-2-.8-.4-.5-.6-1.3-.6-2.1 0-.7.2-1.4.5-1.9.5-.6 1.2-1.1 2.1-1.1 1 0 1.7.3 2.2.9zm-.7 3.5c.3-.5.4-1.1.4-1.7 0-.6-.2-1.2-.5-1.6-.3-.4-.8-.6-1.4-.6s-1.1.2-1.4.6c-.3.4-.5 1-.5 1.8 0 .6.1 1.2.4 1.6.3.4.8.6 1.5.6s1.2-.1 1.5-.7z"/><path d="M-363.6-76.5h3.8v.6h-3.1v1.8h2.8v.6h-2.8v2.5h-.7v-5.5z"/><path d="M-356.6-76.5h2.5c.5 0 .8.1 1.2.4.3.3.4.6.4 1.2 0 .4-.1.8-.4 1.2-.3.3-.6.5-1.3.5h-1.7v2.3h-.7v-5.6zm2.8.7c-.2-.1-.4-.1-.6-.1h-1.5v1.9h1.5c.3 0 .6-.1.8-.2.2-.1.3-.4.3-.7 0-.4-.1-.7-.5-.9z"/><path d="M-351.1-72.7c0 .3.1.5.2.7.2.3.6.5 1.3.5.3 0 .5 0 .7-.1.4-.1.6-.4.6-.8 0-.3-.1-.5-.3-.6-.2-.1-.5-.2-.8-.3l-.7-.2c-.5-.1-.8-.2-1.1-.3-.3-.2-.5-.5-.5-1.1s.2-1 .5-1.3c.3-.3.8-.5 1.5-.5.5 0 1.1.1 1.5.4s.6.7.6 1.4h-.7c0-.3-.1-.5-.2-.6-.2-.3-.6-.4-1.2-.4-.4 0-.7.1-1 .3-.2.2-.3.4-.3.6 0 .3.1.4.3.6.1.1.4.2 1 .3l.7.2c.3.1.6.2.8.3.3.2.5.6.5 1.2s-.2 1.1-.6 1.3c-.4.3-1 .4-1.5.4-.6 0-1.2-.2-1.6-.5-.4-.3-.5-.8-.5-1.4h.7v-.1z"/><path d="M-346.8-76.5h.8l1.6 2.7 1.6-2.7h.8l-2.1 3.3v2.3h-.7v-2.2l-2-3.4z"/><path d="M-337.2-76.1c.4.4.6.7.6 1.3h-.7c-.1-.3-.2-.6-.5-.8-.2-.2-.6-.3-1.1-.3-.5 0-1 .2-1.3.5-.3.4-.5 1-.5 1.8 0 .6.1 1.2.4 1.6.3.4.7.6 1.4.6.5 0 1-.2 1.3-.6.1-.2.2-.5.3-.8h.7c-.1.6-.3 1.1-.6 1.5-.4.5-1.1.7-1.8.7-.6 0-1.2-.2-1.6-.6-.5-.5-.8-1.3-.8-2.4 0-.8.2-1.5.6-2 .4-.5 1.1-.8 1.9-.8.7-.2 1.3-.1 1.7.3z"/><path d="M-335.5-76.5h.7v2.3h2.9v-2.3h.7v5.6h-.7v-2.7h-2.9v2.7h-.7v-5.6z"/><path d="M-329.8-76.5h.7v5.6h-.7v-5.6z"/><path d="M-326.2-76.5h.8l2 5.6h-.8l-.5-1.7h-2.2l-.6 1.7h-.7l2-5.6zm1.3 3.3l-.8-2.4-.8 2.4h1.6z"/><path d="M-319-76.5v.6h-1.9v5h-.7v-4.9h-1.9v-.6h4.6v-.1z"/><path d="M-318.3-76.5h2.5c.4 0 .7.1 1.1.2.5.2.7.6.7 1.3 0 .3-.1.6-.2.8-.1.2-.3.4-.5.5.2.1.4.2.5.3.1.1.2.4.2.7v.7c0 .2 0 .3.1.4 0 .2.1.3.2.3v.2h-1s0-.1-.1-.2v-1.4c0-.3-.1-.6-.4-.7-.1-.1-.3-.1-.6-.1h-1.7v2.4h-.7v-5.6h-.1zm2.5 2.5c.3 0 .6-.1.8-.2.2-.1.3-.4.3-.7 0-.4-.1-.6-.4-.8-.1-.1-.3-.1-.6-.1h-1.8v1.9h1.7z"/><path d="M-313.3-76.5h.8l1.6 2.7 1.6-2.7h.8l-2.1 3.3v2.3h-.7v-2.2l-2-3.4z"/><path d="M-423.6-66.2c.6-.6 1.5-1 2.4-1 1.3 0 2.2.4 2.9 1.3.3.5.5 1 .5 1.5h-1.6c-.1-.4-.2-.6-.4-.8-.3-.3-.7-.5-1.3-.5-.5 0-1.1.2-1.4.7-.3.5-.5 1.2-.5 2s.2 1.5.5 2c.3.4.8.6 1.4.6.5 0 1-.2 1.3-.5.2-.2.3-.5.4-1h1.6c-.1.8-.5 1.6-1.1 2.1-.5.5-1.3.8-2.2.8-1.2 0-2-.3-2.7-1.1s-1-1.7-1-3c0-1.4.4-2.4 1.2-3.1z"/><path d="M-409.4-59.9c-.6.6-1.5 1-2.5 1-1.1 0-2-.3-2.5-1-.7-.7-1.2-1.8-1.2-3.2 0-1.5.4-2.5 1.2-3.2.6-.6 1.5-1 2.5-1 1.1 0 2 .3 2.5 1 .7.7 1.2 1.8 1.2 3.2s-.5 2.4-1.2 3.2zm-1.1-1.2c.4-.5.5-1.2.5-2s-.2-1.6-.5-2c-.4-.5-.8-.7-1.6-.7s-1.2.2-1.6.7c-.4.5-.5 1.2-.5 2s.2 1.6.5 2c.4.5 1 .7 1.6.7s1.3-.3 1.6-.7z"/><path d="M-405.9-67.1h1.6v6.5h3.9v1.4h-5.5v-7.9z"/><path d="M-398.2-67.1h1.6v6.5h3.9v1.4h-5.5v-7.9z"/><path d="M-384.6-65.7h-4.2v1.7h3.8v1.4h-3.8v2h4.4v1.4h-5.9v-7.9h5.8v1.4z"/><path d="M-376.8-64.6c-.1-.5-.4-1-1-1.2-.3-.1-.5-.2-.8-.2-.6 0-1.2.2-1.6.7-.4.4-.6 1.2-.6 2.1 0 1 .2 1.6.6 2 .4.4 1 .6 1.5.6s1-.1 1.4-.4.5-.7.6-1.3h-1.8v-1.3h3.3v4.2h-1.1l-.1-1.1c-.3.3-.6.6-.8.7-.4.2-1 .4-1.6.4-1.1 0-1.9-.3-2.5-1.1-.7-.7-1.1-1.7-1.1-3s.3-2.3 1.1-3.1c.7-.7 1.6-1.2 2.8-1.2 1 0 1.8.2 2.4.7.6.5 1 1.2 1.1 1.9h-1.7v.6z"/><path d="M-366.7-65.7h-4.1v1.7h3.8v1.4h-3.8v2h4.4v1.4h-5.9v-7.9h5.7v1.4z"/><path d="M-354-59.9c-.6.6-1.5 1-2.5 1-1.1 0-2-.3-2.5-1-.7-.7-1.2-1.8-1.2-3.2 0-1.5.4-2.5 1.2-3.2.6-.6 1.5-1 2.5-1 1.1 0 2 .3 2.5 1 .7.7 1.2 1.8 1.2 3.2s-.3 2.4-1.2 3.2zm-1-1.2c.4-.5.5-1.2.5-2s-.2-1.6-.5-2c-.4-.5-.8-.7-1.6-.7s-1.2.2-1.6.7c-.4.5-.5 1.2-.5 2s.2 1.6.5 2c.4.5 1 .7 1.6.7s1.2-.3 1.6-.7z"/><path d="M-350.5-67.1h5.6v1.4h-3.9v1.8h3.5v1.4h-3.5v3.3h-1.6v-7.9h-.1z"/><path d="M-419.2-55.4h2.3v7.9h-1.5V-54l-1.6 6.6h-1.6l-1.5-6.6v6.5h-1.5v-7.9h2.3l1.4 6.2 1.7-6.2z"/><path d="M-408.5-54h-4.1v1.7h3.8v1.4h-3.8v2h4.4v1.4h-5.9v-7.9h5.7v1.4z"/><path d="M-401.3-55.3c.5.2 1 .5 1.4 1 .3.4.4.8.5 1.3.1.4.1.8.1 1.3 0 1.1-.2 1.9-.6 2.7-.5 1.1-1.4 1.6-2.5 1.6h-3.4v-7.9h3.4c.3-.1.7-.1 1.1 0zm-3 1.3v5.1h1.5c.7 0 1.3-.4 1.6-1.2.2-.4.2-1 .2-1.5 0-.8-.1-1.4-.4-1.8-.2-.4-.7-.6-1.5-.6h-1.4z"/><path d="M-395.5-47.5h-1.6v-7.9h1.6v7.9z"/><path d="M-392.1-54.5c.6-.6 1.5-1 2.4-1 1.3 0 2.2.4 2.9 1.3.3.5.5 1 .5 1.5h-1.6c-.1-.4-.2-.6-.4-.8-.3-.3-.7-.5-1.3-.5s-1.1.2-1.4.7c-.3.5-.5 1.2-.5 2s.2 1.5.5 2c.3.4.8.6 1.4.6s1-.2 1.3-.5c.2-.2.3-.5.4-1h1.6c-.1.8-.5 1.6-1.1 2.1s-1.3.8-2.2.8c-1.2 0-2-.3-2.7-1.1s-1-1.7-1-3c.1-1.4.5-2.4 1.2-3.1z"/><path d="M-382.3-47.5h-1.6v-7.9h1.6v7.9z"/><path d="M-379.8-55.4h1.7l3.1 5.5v-5.5h1.5v7.9h-1.5l-3.2-5.5v5.5h-1.5v-7.9h-.1z"/><path d="M-365-54h-4.1v1.7h3.8v1.4h-3.8v2h4.4v1.4h-5.9v-7.9h5.7v1.4z"/><path d="M-437.5-69.3l-4 1.9c-.4-1.5-1.3-2.4-2.7-2.4-2 0-3 1.7-3 4.4s1.1 4.2 3 4.2c1.4 0 2.2-.7 2.7-1.9l4.2 1.5c-1.1 2.5-3.3 4.2-6.9 4.2-4.9 0-7.8-3.3-7.8-8.1s3-8.1 7.9-8.1c3.7.2 5.9 2.3 6.6 4.3m-16.7 11.7h-4.7v-15.6h4.7v15.6zm-7.5-6.4c0 2.1-.2 3.2-.8 4.2-1.1 1.7-3.8 2.3-6.2 2.3-2.4 0-5.2-.6-6.2-2.3-.6-1.1-.8-2.1-.8-4.2v-9.2h4.7v9.3c0 1.1.1 1.7.5 2.2.3.4 1 .6 1.8.6s1.5-.2 1.8-.6c.4-.4.5-1.2.5-2.2v-9.3h4.7v9.2zm28.5-2.1c0-13.2-10.7-23.9-23.9-23.9S-481-79.3-481-66.1s10.7 23.9 23.9 23.9 23.9-10.7 23.9-23.9"/><path d="M57 9.8h-1V5.3h1v4.5z"/><path d="M58 5.3h1l1.8 3.1V5.3h.8v4.5h-1l-1.8-3.2v3.2H58V5.3z"/><path d="M63.2 8.4c0 .2.1.3.2.4.1.2.4.3.8.3.2 0 .4 0 .5-.1.3-.1.4-.3.4-.5 0-.1-.1-.2-.2-.3-.1-.1-.3-.1-.6-.2l-.5-.1c-.4-.1-.8-.2-1-.3-.3-.2-.4-.5-.4-1s.1-.7.4-1c.2-.3.6-.5 1.2-.5s.8.1 1.3.4.5.6.5 1.1H65c0-.3-.1-.4-.3-.5-.1-.1-.3-.1-.5-.1s-.4 0-.6.1c-.1.1-.2.2-.2.4s.1.3.2.3.3.1.6.2l.7.2c.3.1.6.2.7.3.3.2.4.5.4 1 0 .4-.1.7-.4 1.1-.3.3-.7.4-1.4.4-.6 0-1.1-.1-1.4-.4-.3-.3-.5-.6-.5-1.1h.8v-.1z"/><path d="M69.9 5.3V6h-1.4v3.7h-1V6.1h-1.4v-.8h3.8z"/><path d="M71.4 9.8h-1V5.3h1v4.5z"/><path d="M75.5 5.3V6h-1.4v3.7h-1V6.1h-1.4v-.8h3.8z"/><path d="M76 5.3h1v2.8c0 .3 0 .5.1.6.1.2.3.4.7.4s.6-.1.7-.4c.1-.1.1-.3.1-.6V5.3h1v2.8c0 .4-.1.8-.2 1.1-.3.5-.8.7-1.6.7s-1.3-.2-1.6-.7c-.1-.3-.2-.7-.2-1.1V5.3z"/><path d="M83.8 5.3V6h-1.4v3.7h-.8V6.1h-1.4v-.8h3.6z"/><path d="M87.7 6.1h-2.3v1h2.2v.7h-2.2V9h2.4v.8h-3.4V5.3h3.3v.8z"/><path d="M90.3 5.3h3.2V6h-2.2v1.1h2v.7h-2v1.9h-1V5.3z"/><path d="M97.6 9.3c-.3.3-.8.5-1.5.5-.6 0-1.2-.2-1.5-.5-.4-.4-.6-1-.6-1.8s.2-1.5.6-1.8c.3-.3.8-.5 1.5-.5.6 0 1.2.2 1.5.5.4.4.6 1.1.6 1.8 0 .8-.2 1.4-.6 1.8zm-.6-.6c.2-.3.3-.6.3-1.2s-.1-.8-.3-1.1-.5-.4-.8-.4c-.3 0-.6.1-.8.4s-.5.6-.5 1.1.1.8.3 1.2c.2.3.5.4.8.4.4-.1.8-.2 1-.4z"/><path d="M101.9 5.4c.2.1.3.2.4.3.1.1.2.2.2.4s.1.3.1.4c0 .2-.1.4-.2.6-.1.2-.3.3-.5.4.2.1.3.2.4.3.1.1.1.4.1.7v.9c0 .1.1.2.2.2v.1h-1.1c0-.1 0-.2-.1-.2v-.8c0-.3 0-.4-.1-.5-.1-.1-.3-.1-.5-.1h-1v1.8h-1V5.3h2.1c.5 0 .7 0 1 .1zm-2 .7v1.2h1c.2 0 .3 0 .4-.1.2-.1.2-.2.2-.5s-.1-.4-.2-.5c-.1 0-.2-.1-.4-.1h-1z"/><path d="M105.8 8.1c0 .4 0 .7.1.8.1.1.2.2.4.2s.3-.1.4-.2c0-.1.1-.2.1-.4V5.3h1v3.1c0 .4-.1.6-.2 1-.2.4-.6.5-1.2.5s-1-.1-1.2-.4c-.2-.3-.3-.7-.3-1.3v-.1h.9z"/><path d="M108.8 5.3h1v2.8c0 .3 0 .5.1.6.1.2.3.4.7.4s.6-.1.7-.4c.1-.1.1-.3.1-.6V5.3h1v2.8c0 .4-.1.8-.2 1.1-.3.5-.8.7-1.6.7s-1.3-.2-1.6-.7c-.1-.2-.2-.6-.2-1.1V5.3z"/><path d="M115.9 5.3h1l-1.5 4.5h-.8L113 5.3h1l1 3.4.9-3.4z"/><path d="M120.8 6.1h-2.3v1h2.2v.7h-2.2V9h2.4v.8h-3.4V5.3h3.3v.8z"/><path d="M121.6 5.3h1l1.8 3.1V5.3h.8v4.5h-1l-1.8-3.2v3.2h-.8V5.3z"/><path d="M126.9 9.8h-1V5.3h1v4.5z"/><path d="M127.9 5.3h1V9h2.2v.8h-3.2V5.3z"/><path d="M135 6.1h-2.3v1h2.1v.7h-2.1V9h2.4v.8h-3.4V5.3h3.3v.8z"/><path d="M140.5 5.4c.2.1.3.2.4.3.1.1.2.2.2.4s.1.3.1.4c0 .2-.1.4-.2.6-.1.2-.3.3-.5.4.2.1.3.2.4.3.1.1.1.4.1.7v.9c0 .1.1.2.2.2v.1h-1.1c0-.1 0-.2-.1-.2v-.8c0-.3 0-.4-.1-.5-.1-.1-.3-.1-.5-.1h-1v1.8h-1V5.3h2.1c.6 0 .8 0 1 .1zm-2 .7v1.2h1c.2 0 .3 0 .4-.1.2-.1.2-.2.2-.5s-.1-.4-.2-.5c-.1 0-.2-.1-.4-.1h-1z"/><path d="M145.4 6.1h-2.3v1h2.2v.7h-2.2V9h2.4v.8h-3.4V5.3h3.3v.8z"/><path d="M147 8.4c0 .2.1.3.2.4.1.2.4.3.8.3.2 0 .4 0 .5-.1.3-.1.4-.3.4-.5 0-.1-.1-.2-.2-.3-.1-.1-.3-.1-.6-.2l-.5-.1c-.4-.1-.8-.2-1-.3-.3-.2-.4-.5-.4-1s.1-.7.4-1 .7-.4 1.3-.4c.5 0 .8.1 1.3.4.3.2.5.6.5 1.1h-.8c0-.3-.1-.4-.3-.5-.1-.1-.3-.1-.5-.1s-.4 0-.6.1c-.1.1-.2.2-.2.4s.1.3.2.3.3.1.6.2l.7.2c.3.1.6.2.7.3.3.2.4.5.4 1s-.1.7-.4 1.1c-.3.3-.7.4-1.4.4-.6 0-1.1-.1-1.4-.4-.3-.3-.5-.6-.5-1.1h.7v-.2z"/><path d="M153.8 6.1h-2.3v1h2.1v.7h-2.1V9h2.4v.8h-3.4V5.3h3.3v.8z"/><path d="M155.9 5.3h1.1l1.6 4.5h-1.1l-.3-1h-1.7l-.3 1h-1l1.7-4.5zm0 2.8h1.2l-.5-1.8-.7 1.8z"/><path d="M162.1 5.4c.2.1.3.2.4.3.1.1.2.2.2.4.1.1.1.3.1.4 0 .2-.1.4-.2.6-.1.2-.3.3-.5.4.2.1.3.2.4.3.1.1.1.4.1.7v.9c0 .1.1.2.2.2v.1h-1.1c0-.1 0-.2-.1-.2v-.8c0-.3 0-.4-.1-.5s-.3-.1-.5-.1h-1v1.8h-1V5.3h2.1c.5 0 .8 0 1 .1zm-2 .7v1.2h1c.2 0 .3 0 .4-.1.2-.1.2-.2.2-.5s-.1-.4-.2-.5c-.1 0-.2-.1-.4-.1h-1z"/><path d="M164.1 5.7c.3-.3.8-.5 1.4-.5.7 0 1.3.2 1.6.7.2.3.3.5.3.8h-.8c-.1-.2-.1-.4-.2-.5-.2-.2-.4-.3-.7-.3-.3 0-.6.1-.7.4-.2.3-.3.6-.3 1.2s.1.8.3 1.2c.2.3.4.4.7.4.3 0 .5-.1.7-.3.1-.1.2-.3.2-.5h1c-.1.5-.3.8-.6 1.2-.3.3-.7.4-1.3.4-.6 0-1.2-.2-1.5-.6-.3-.4-.5-1-.5-1.7-.2-.8 0-1.4.4-1.9z"/><path d="M168.2 9.8V5.3h1V7h1.7V5.3h1v4.5h-1v-2h-1.7v2h-1z"/><path d="M56.4 13.5h2.2c.7 0 1.4.3 1.8.8.3.5.5 1.2.5 1.9 0 .6-.1 1.2-.3 1.6-.4.8-1.1 1.3-2 1.3h-2.2v-5.6zm2 5c.2 0 .4 0 .6-.1.3-.1.5-.3.7-.5.1-.2.2-.5.3-.8 0-.2.1-.4.1-.6 0-.7-.1-1.3-.4-1.6-.3-.4-.7-.5-1.3-.5H57v4.2l1.4-.1z"/><path d="M62 13.5h4v.6h-3.3v1.8h3.1v.6h-3.1v1.9h3.4v.6H62v-5.5z"/><path d="M67.2 13.5h2.5c.5 0 .8.1 1.2.4.3.3.4.6.4 1.2 0 .4-.1.8-.4 1.2-.3.3-.6.5-1.3.5H68v2.3h-.7l-.1-5.6zm2.9.7c-.2-.1-.4-.1-.6-.1H68V16h1.5c.3 0 .6-.1.8-.2.2-.1.3-.4.3-.7 0-.4-.2-.7-.5-.9z"/><path d="M73.4 13.5h.8l2 5.6h-.8l-.5-1.7h-2.2l-.7 1.7h-.7l2.1-5.6zm1.3 3.3l-.8-2.4-.9 2.4h1.7z"/><path d="M77 13.5h2.5c.4 0 .7.1 1.1.2.5.2.7.6.7 1.3 0 .3-.1.6-.2.8-.1.2-.3.4-.5.5.2.1.4.2.5.3.1.1.2.4.2.7v1.1c0 .2.1.3.2.3v.2h-1s0-.1-.1-.2v-1.4c0-.3-.1-.6-.4-.7-.1-.1-.3-.1-.6-.1h-1.7v2.4H77v-5.4zm2.5 2.5c.3 0 .6-.1.8-.2.2-.1.3-.4.3-.7 0-.4-.1-.6-.4-.8-.1-.1-.3-.1-.6-.1h-1.8V16h1.7z"/><path d="M86.5 13.5v.6h-1.9v5h-.7v-4.9H82v-.6h4.6v-.1z"/><path d="M87.2 13.5h1.1l1.6 4.7 1.6-4.7h1.1v5.6h-.7v-4.6l-1.5 4.7h-.7l-1.6-4.7v4.6h-.7v-5.6z"/><path d="M93.8 13.5h4v.6h-3.3v1.8h3v.6h-3.1v1.9h3.4v.6h-4.1v-5.6h.1z"/><path d="M98.9 13.5h.8l2.8 4.5v-4.5h.7v5.6h-.8l-2.8-4.6v4.6h-.7v-5.6z"/><path d="M108.5 13.5v.6h-1.9v5h-.7v-4.9H104v-.6h4.6v-.1z"/><path d="M115.9 14.3c.3.5.5 1.2.5 1.9 0 .8-.2 1.5-.6 2.1-.5.6-1.2 1-2.1 1-.8 0-1.5-.3-2-.8-.4-.5-.6-1.3-.6-2.1 0-.7.2-1.4.5-1.9.5-.6 1.2-1.1 2.1-1.1 1 0 1.7.3 2.2.9zm-.7 3.5c.3-.5.4-1.1.4-1.7 0-.6-.2-1.2-.5-1.6-.3-.4-.8-.6-1.4-.6s-1.1.2-1.4.6-.5 1-.5 1.8c0 .6.1 1.2.4 1.6.3.4.8.6 1.5.6.7.1 1.2-.1 1.5-.7z"/><path d="M117.4 13.5h3.8v.6h-3.1v1.8h2.8v.6h-2.8V19h-.7v-5.5z"/><path d="M124.4 13.5h2.5c.5 0 .8.1 1.2.4.3.3.4.6.4 1.2 0 .4-.1.8-.4 1.2s-.6.5-1.3.5h-1.7v2.3h-.7v-5.6zm2.8.7c-.2-.1-.4-.1-.6-.1h-1.5V16h1.5c.3 0 .6-.1.8-.2.2-.1.3-.4.3-.7 0-.4-.1-.7-.5-.9z"/><path d="M129.9 17.3c0 .3.1.5.2.7.2.3.6.5 1.3.5.3 0 .5 0 .7-.1.4-.1.6-.4.6-.8 0-.3-.1-.5-.3-.6-.2-.1-.5-.2-.8-.3l-.7-.2c-.5-.1-.8-.2-1.1-.3-.3-.2-.5-.5-.5-1.1 0-.5.2-1 .5-1.3.3-.3.8-.5 1.5-.5.5 0 1.1.1 1.5.4.4.3.6.7.6 1.4h-.7c0-.3-.1-.5-.2-.6-.2-.3-.6-.4-1.2-.4-.4 0-.7.1-1 .3-.2.2-.3.4-.3.6 0 .3.1.4.3.6.1.1.4.2 1 .3l.7.2c.3.1.6.2.8.3.3.2.5.6.5 1.2s-.2 1.1-.6 1.3c-.4.3-1 .4-1.5.4-.6 0-1.2-.2-1.6-.5-.4-.3-.5-.8-.5-1.4h.7v-.1z"/><path d="M134.2 13.5h.8l1.6 2.7 1.6-2.7h.8l-2.1 3.3v2.3h-.7v-2.2l-2-3.4z"/><path d="M143.8 13.9c.4.4.6.7.6 1.3h-.7c-.1-.3-.2-.6-.5-.8-.2-.2-.6-.3-1.1-.3-.5 0-1 .2-1.3.5-.3.4-.5 1-.5 1.8 0 .6.1 1.2.4 1.6.3.4.7.6 1.4.6.5 0 1-.2 1.3-.6.1-.2.2-.5.3-.8h.7c-.1.6-.3 1.1-.6 1.5-.4.5-1.1.7-1.8.7-.6 0-1.2-.2-1.6-.6-.5-.5-.8-1.3-.8-2.4 0-.8.2-1.5.6-2 .4-.5 1.1-.8 1.9-.8.7-.2 1.3-.1 1.7.3z"/><path d="M145.5 13.5h.7v2.3h2.9v-2.3h.7v5.6h-.7v-2.7h-2.9v2.7h-.7v-5.6z"/><path d="M151.2 13.5h.7v5.6h-.7v-5.6z"/><path d="M154.8 13.5h.8l2 5.6h-.8l-.5-1.7h-2.2l-.6 1.7h-.7l2-5.6zm1.3 3.3l-.8-2.4-.8 2.4h1.6z"/><path d="M162 13.5v.6h-1.9v5h-.7v-4.9h-1.9v-.6h4.6v-.1z"/><path d="M162.7 13.5h2.5c.4 0 .7.1 1.1.2.5.2.7.6.7 1.3 0 .3-.1.6-.2.8-.1.2-.3.4-.5.5.2.1.4.2.5.3s.2.4.2.7v.7c0 .2 0 .3.1.4 0 .2.1.3.2.3v.2h-1s0-.1-.1-.2v-1.4c0-.3-.1-.6-.4-.7-.1-.1-.3-.1-.6-.1h-1.7v2.4h-.7v-5.6h-.1zm2.5 2.5c.3 0 .6-.1.8-.2.2-.1.3-.4.3-.7 0-.4-.1-.6-.4-.8-.1-.1-.3-.1-.6-.1h-1.8V16h1.7z"/><path d="M167.7 13.5h.8l1.6 2.7 1.6-2.7h.8l-2.1 3.3v2.3h-.7v-2.2l-2-3.4z"/><path d="M57.4 23.8c.6-.6 1.5-1 2.4-1 1.3 0 2.2.4 2.9 1.3.3.5.5 1 .5 1.5h-1.6c-.1-.4-.2-.6-.4-.8-.3-.3-.7-.5-1.3-.5s-1.1.2-1.4.7c-.3.5-.5 1.2-.5 2s.2 1.5.5 2c.3.4.8.6 1.4.6s1-.2 1.3-.5c.2-.2.3-.5.4-1h1.6c-.1.8-.5 1.6-1.1 2.1-.5.5-1.3.8-2.2.8-1.2 0-2-.3-2.7-1.1-.6-.7-1-1.7-1-3 0-1.4.4-2.4 1.2-3.1z"/><path d="M71.6 30.1c-.6.6-1.5 1-2.5 1-1.1 0-2-.3-2.5-1-.7-.7-1.2-1.8-1.2-3.2 0-1.5.4-2.5 1.2-3.2.6-.6 1.5-1 2.5-1 1.1 0 2 .3 2.5 1 .7.7 1.2 1.8 1.2 3.2 0 1.4-.5 2.4-1.2 3.2zm-1.1-1.2c.4-.5.5-1.2.5-2s-.2-1.6-.5-2c-.4-.5-.8-.7-1.6-.7s-1.2.2-1.6.7c-.4.5-.5 1.2-.5 2s.2 1.6.5 2c.4.5 1 .7 1.6.7s1.3-.3 1.6-.7z"/><path d="M75.1 22.9h1.6v6.5h3.9v1.4h-5.5v-7.9z"/><path d="M82.8 22.9h1.6v6.5h3.9v1.4h-5.5v-7.9z"/><path d="M96.4 24.3h-4.2V26H96v1.4h-3.8v2h4.4v1.4h-5.9v-7.9h5.8v1.4z"/><path d="M104.2 25.4c-.1-.5-.4-1-1-1.2-.3-.1-.5-.2-.8-.2-.6 0-1.2.2-1.6.7-.4.4-.6 1.2-.6 2.1 0 1 .2 1.6.6 2 .4.4 1 .6 1.5.6s1-.1 1.4-.4c.4-.3.5-.7.6-1.3h-1.8v-1.3h3.3v4.2h-1.1l-.1-1.1c-.3.3-.6.6-.8.7-.4.2-1 .4-1.6.4-1.1 0-1.9-.3-2.5-1.1-.7-.7-1.1-1.7-1.1-3s.3-2.3 1.1-3.1c.7-.7 1.6-1.2 2.8-1.2 1 0 1.8.2 2.4.7.6.5 1 1.2 1.1 1.9h-1.7v.6z"/><path d="M114.3 24.3h-4.1V26h3.8v1.4h-3.8v2h4.4v1.4h-5.9v-7.9h5.7v1.4z"/><path d="M127 30.1c-.6.6-1.5 1-2.5 1-1.1 0-2-.3-2.5-1-.7-.7-1.2-1.8-1.2-3.2 0-1.5.4-2.5 1.2-3.2.6-.6 1.5-1 2.5-1 1.1 0 2 .3 2.5 1 .7.7 1.2 1.8 1.2 3.2 0 1.4-.3 2.4-1.2 3.2zm-1-1.2c.4-.5.5-1.2.5-2s-.2-1.6-.5-2c-.4-.5-.8-.7-1.6-.7s-1.2.2-1.6.7c-.4.5-.5 1.2-.5 2s.2 1.6.5 2c.4.5 1 .7 1.6.7.6 0 1.2-.3 1.6-.7z"/><path d="M130.5 22.9h5.6v1.4h-3.9v1.8h3.5v1.4h-3.5v3.3h-1.6v-7.9h-.1z"/><path d="M61.8 34.6h2.3v7.9h-1.5V36L61 42.6h-1.6L58 35.9v6.5h-1.5v-7.9h2.3l1.4 6.2 1.6-6.1z"/><path d="M72.5 36h-4.1v1.7h3.8v1.4h-3.8v2h4.4v1.4h-5.9v-7.9h5.7V36z"/><path d="M79.7 34.7c.5.2 1 .5 1.4 1 .3.4.4.8.5 1.3.1.4.1.8.1 1.3 0 1.1-.2 1.9-.6 2.7-.5 1.1-1.4 1.6-2.5 1.6h-3.4v-7.9h3.4c.3-.1.7-.1 1.1 0zm-3 1.3v5.1h1.5c.7 0 1.3-.4 1.6-1.2.2-.4.2-1 .2-1.5 0-.8-.1-1.4-.4-1.8-.2-.4-.7-.6-1.5-.6h-1.4z"/><path d="M85.5 42.5h-1.6v-7.9h1.6v7.9z"/><path d="M88.9 35.5c.6-.6 1.5-1 2.4-1 1.3 0 2.2.4 2.9 1.3.3.5.5 1 .5 1.5h-1.6c-.1-.4-.2-.6-.4-.8-.3-.3-.7-.5-1.3-.5-.5 0-1.1.2-1.4.7-.3.5-.5 1.2-.5 2s.2 1.5.5 2c.3.4.8.6 1.4.6.5 0 1-.2 1.3-.5.2-.2.3-.5.4-1h1.6c-.1.8-.5 1.6-1.1 2.1-.5.5-1.3.8-2.2.8-1.2 0-2-.3-2.7-1.1-.6-.7-1-1.7-1-3 .1-1.4.5-2.4 1.2-3.1z"/><path d="M98.7 42.5h-1.6v-7.9h1.6v7.9z"/><path d="M101.2 34.6h1.7l3.1 5.5v-5.5h1.5v7.9H106l-3.2-5.5v5.5h-1.5v-7.9h-.1z"/><path d="M116 36h-4.1v1.7h3.8v1.4h-3.8v2h4.4v1.4h-5.9v-7.9h5.7V36z"/><path d="M43.5 20.7l-4 1.9c-.4-1.5-1.3-2.4-2.7-2.4-2 0-3 1.7-3 4.4s1.1 4.2 3 4.2c1.4 0 2.2-.7 2.7-1.9l4.2 1.5c-1.1 2.5-3.3 4.2-6.9 4.2-4.9 0-7.8-3.3-7.8-8.1s3-8.1 7.9-8.1c3.7.2 5.9 2.3 6.6 4.3M26.8 32.4h-4.7V16.8h4.7v15.6zM19.3 26c0 2.1-.2 3.2-.8 4.2-1.1 1.7-3.8 2.3-6.2 2.3-2.4 0-5.2-.6-6.2-2.3-.6-1.1-.8-2.1-.8-4.2v-9.2H10v9.3c0 1.1.1 1.7.5 2.2.3.4 1 .6 1.8.6s1.5-.2 1.8-.6c.4-.4.5-1.2.5-2.2v-9.3h4.7V26zm28.5-2.1C47.8 10.7 37.1 0 23.9 0S0 10.7 0 23.9s10.7 23.9 23.9 23.9 23.9-10.7 23.9-23.9"/></symbol><symbol id="icon-x" viewBox="0 0 43.4 43.4"><path d="M.7.7l42 42"/><path d="M42.7.7l-42 42"/></symbol></svg>